<svg xmlns="http://www.w3.org/2000/svg" viewBox="0 0 1600 280" width="1600" height="280" preserveAspectRatio="xMidYMax slice"><rect x="0" y="238" width="1600" height="42" fill="#0a1428"/><path d="M0 238 L0 176 L0 150 L40 150 L40 165 L80 165 L80 161 L120 161 L120 152 L160 152 L160 179 L200 179 L200 164 L240 164 L240 168 L280 168 L280 166 L320 166 L320 166 L360 166 L360 160 L400 160 L400 157 L440 157 L440 174 L480 174 L480 155 L520 155 L520 163 L560 163 L560 170 L600 170 L600 178 L640 178 L640 163 L680 163 L680 153 L720 153 L720 157 L760 157 L760 175 L800 175 L800 170 L840 170 L840 169 L880 169 L880 166 L920 166 L920 158 L960 158 L960 160 L1000 160 L1000 177 L1040 177 L1040 150 L1080 150 L1080 157 L1120 157 L1120 170 L1160 170 L1160 174 L1200 174 L1200 150 L1240 150 L1240 163 L1280 163 L1280 180 L1320 180 L1320 168 L1360 168 L1360 153 L1400 153 L1400 171 L1440 171 L1440 183 L1480 183 L1480 161 L1520 161 L1520 181 L1560 181 L1560 151 L1600 151 L1600 174 L1640 174 L1600 176 L1600 238 Z" fill="#16264a"/><path d="M0 238 V196 h94 V238 Z M420 238 V200 h103 V238 Z M529 238 V187 h94 V238 Z M625 238 V169 h83 V238 Z M714 238 V183 h96 V238 Z M815 238 V197 h46 V238 Z M1100 238 V206 h77 V238 Z M1180 238 V212 h102 V238 Z M1285 238 V190 h95 V238 Z M1381 238 V170 h49 V238 Z M1435 238 V183 h53 V238 Z M1491 238 V189 h69 V238 Z M1561 238 V196 h39 V238 Z M140 238 V136 H180 V96 L196 66 L212 96 V136 H348 V96 L364 66 L380 96 V136 H408 V238 Z M228 136 V118 H332 V136 Z M900 238 V186 H930 V70 L935 46 L940 70 V186 H1060 V70 L1065 46 L1070 70 V186 H1092 V238 Z" fill="#0e1830" fill-rule="nonzero"/><path d="M944 186 Q944 128 1000 122 Q1056 128 1056 186 Z" fill="#0e1830"/><rect x="997" y="104" width="6" height="20" fill="#0e1830"/><circle cx="1000" cy="102" r="4" fill="#0e1830"/><g fill="#f6d55c" opacity=".55"><rect x="34" y="206" width="6" height="8" rx="1"/><rect x="493" y="210" width="6" height="8" rx="1"/><rect x="506" y="210" width="6" height="8" rx="1"/><rect x="550" y="197" width="6" height="8" rx="1"/><rect x="563" y="197" width="6" height="8" rx="1"/><rect x="589" y="212" width="6" height="8" rx="1"/><rect x="602" y="212" width="6" height="8" rx="1"/><rect x="537" y="227" width="6" height="8" rx="1"/><rect x="672" y="179" width="6" height="8" rx="1"/><rect x="685" y="209" width="6" height="8" rx="1"/><rect x="685" y="224" width="6" height="8" rx="1"/><rect x="748" y="193" width="6" height="8" rx="1"/><rect x="787" y="193" width="6" height="8" rx="1"/><rect x="761" y="208" width="6" height="8" rx="1"/><rect x="761" y="223" width="6" height="8" rx="1"/><rect x="1108" y="216" width="6" height="8" rx="1"/><rect x="1147" y="216" width="6" height="8" rx="1"/><rect x="1214" y="222" width="6" height="8" rx="1"/><rect x="1293" y="200" width="6" height="8" rx="1"/><rect x="1293" y="215" width="6" height="8" rx="1"/><rect x="1358" y="215" width="6" height="8" rx="1"/><rect x="1389" y="195" width="6" height="8" rx="1"/><rect x="1389" y="225" width="6" height="8" rx="1"/><rect x="1443" y="193" width="6" height="8" rx="1"/><rect x="1469" y="208" width="6" height="8" rx="1"/><rect x="1512" y="199" width="6" height="8" rx="1"/><rect x="1525" y="199" width="6" height="8" rx="1"/><rect x="1512" y="214" width="6" height="8" rx="1"/><rect x="1582" y="221" width="6" height="8" rx="1"/><rect x="150" y="146" width="6" height="9" rx="1"/><rect x="332" y="146" width="6" height="9" rx="1"/><rect x="360" y="146" width="6" height="9" rx="1"/><rect x="192" y="162" width="6" height="9" rx="1"/><rect x="206" y="162" width="6" height="9" rx="1"/><rect x="234" y="162" width="6" height="9" rx="1"/><rect x="304" y="162" width="6" height="9" rx="1"/><rect x="318" y="162" width="6" height="9" rx="1"/><rect x="346" y="162" width="6" height="9" rx="1"/><rect x="360" y="162" width="6" height="9" rx="1"/><rect x="206" y="178" width="6" height="9" rx="1"/><rect x="248" y="178" width="6" height="9" rx="1"/><rect x="290" y="178" width="6" height="9" rx="1"/><rect x="346" y="178" width="6" height="9" rx="1"/><rect x="360" y="178" width="6" height="9" rx="1"/><rect x="374" y="178" width="6" height="9" rx="1"/><rect x="388" y="178" width="6" height="9" rx="1"/><rect x="178" y="194" width="6" height="9" rx="1"/><rect x="248" y="194" width="6" height="9" rx="1"/><rect x="318" y="194" width="6" height="9" rx="1"/><rect x="150" y="210" width="6" height="9" rx="1"/><rect x="262" y="210" width="6" height="9" rx="1"/><rect x="304" y="210" width="6" height="9" rx="1"/><rect x="178" y="226" width="6" height="9" rx="1"/><rect x="192" y="226" width="6" height="9" rx="1"/><rect x="318" y="226" width="6" height="9" rx="1"/><rect x="360" y="226" width="6" height="9" rx="1"/><rect x="374" y="226" width="6" height="9" rx="1"/><rect x="388" y="226" width="6" height="9" rx="1"/></g><g fill="#f6d55c" opacity=".9"><circle cx="935" cy="100" r="2.2"/><circle cx="1065" cy="100" r="2.2"/></g><g transform="translate(560 226)"><path d="M0 14 h150 l-12 14 h-126 z" fill="#0e1830"/><rect x="24" y="2" width="96" height="12" rx="3" fill="#0e1830"/><rect x="60" y="-8" width="14" height="10" fill="#0e1830"/><g fill="#f6d55c" opacity=".85"><rect x="32" y="5" width="8" height="5" rx="1"/><rect x="46" y="5" width="8" height="5" rx="1"/><rect x="60" y="5" width="8" height="5" rx="1"/><rect x="74" y="5" width="8" height="5" rx="1"/><rect x="88" y="5" width="8" height="5" rx="1"/><rect x="102" y="5" width="8" height="5" rx="1"/></g></g><g fill="#f28c28" opacity=".28"><rect x="1377" y="248" width="37" height="2" rx="1"/><rect x="623" y="259" width="32" height="2" rx="1"/><rect x="24" y="274" width="23" height="2" rx="1"/><rect x="108" y="256" width="28" height="2" rx="1"/><rect x="104" y="267" width="19" height="2" rx="1"/><rect x="672" y="266" width="39" height="2" rx="1"/><rect x="1047" y="257" width="37" height="2" rx="1"/><rect x="1534" y="269" width="14" height="2" rx="1"/><rect x="263" y="246" width="12" height="2" rx="1"/><rect x="12" y="249" width="42" height="2" rx="1"/><rect x="1074" y="267" width="20" height="2" rx="1"/><rect x="1015" y="246" width="44" height="2" rx="1"/><rect x="389" y="269" width="36" height="2" rx="1"/><rect x="1258" y="270" width="24" height="2" rx="1"/><rect x="430" y="273" width="32" height="2" rx="1"/><rect x="119" y="255" width="40" height="2" rx="1"/><rect x="75" y="260" width="40" height="2" rx="1"/><rect x="1270" y="274" width="31" height="2" rx="1"/><rect x="342" y="270" width="12" height="2" rx="1"/><rect x="692" y="267" width="35" height="2" rx="1"/><rect x="1575" y="255" width="23" height="2" rx="1"/><rect x="390" y="273" width="18" height="2" rx="1"/><rect x="1284" y="274" width="13" height="2" rx="1"/><rect x="1560" y="249" width="29" height="2" rx="1"/><rect x="659" y="249" width="15" height="2" rx="1"/><rect x="1169" y="262" width="25" height="2" rx="1"/><rect x="973" y="269" width="36" height="2" rx="1"/><rect x="1538" y="254" width="29" height="2" rx="1"/><rect x="409" y="247" width="34" height="2" rx="1"/><rect x="1458" y="266" width="15" height="2" rx="1"/><rect x="273" y="266" width="22" height="2" rx="1"/><rect x="788" y="265" width="31" height="2" rx="1"/><rect x="1369" y="275" width="11" height="2" rx="1"/><rect x="669" y="256" width="15" height="2" rx="1"/><rect x="618" y="256" width="14" height="2" rx="1"/><rect x="756" y="273" width="23" height="2" rx="1"/><rect x="556" y="267" width="12" height="2" rx="1"/><rect x="1383" y="269" width="33" height="2" rx="1"/><rect x="616" y="248" width="27" height="2" rx="1"/><rect x="1482" y="253" width="34" height="2" rx="1"/><rect x="1359" y="269" width="33" height="2" rx="1"/><rect x="1510" y="272" width="33" height="2" rx="1"/><rect x="587" y="265" width="43" height="2" rx="1"/><rect x="1440" y="256" width="20" height="2" rx="1"/><rect x="488" y="254" width="11" height="2" rx="1"/><rect x="107" y="274" width="30" height="2" rx="1"/></g></svg>
